HIERARCHY
ROOT Hips
{
 OFFSET 0.000000 0.000000 0.000000
 CHANNELS 6 Xposition Yposition Zposition Yrotation Xrotation Zrotation
 JOINT Chest
 {
  OFFSET 0.000000 9.585900 0.002600
  CHANNELS 3 Yrotation Xrotation Zrotation
  JOINT Chest2
  {
   OFFSET 0.000000 9.601200 -0.005300
   CHANNELS 3 Yrotation Xrotation Zrotation
   JOINT Chest3
   {
    OFFSET 0.000000 9.561800 0.000000
    CHANNELS 3 Yrotation Xrotation Zrotation
    JOINT Chest4
    {
     OFFSET 0.000000 9.552100 0.000000
     CHANNELS 3 Yrotation Xrotation Zrotation
     JOINT Neck
     {
      OFFSET 0.000000 14.453000 0.000000
      CHANNELS 3 Yrotation Xrotation Zrotation
      JOINT Head
      {
       OFFSET 0.000000 8.936500 -0.011300
       CHANNELS 3 Yrotation Xrotation Zrotation
       End Site
       {
        OFFSET 0.000000 17.073600 -0.006000
       }
      }
     }
     JOINT RightCollar
     {
      OFFSET -2.921100 9.558500 0.000000
      CHANNELS 3 Yrotation Xrotation Zrotation
      JOINT RightShoulder
      {
       OFFSET -13.519700 0.000000 0.000000
       CHANNELS 3 Yrotation Xrotation Zrotation
       JOINT RightElbow
       {
        OFFSET 0.000000 -29.696600 0.000000
        CHANNELS 3 Yrotation Xrotation Zrotation
        JOINT RightWrist
        {
         OFFSET 0.000000 -24.004700 0.000000
         CHANNELS 3 Yrotation Xrotation Zrotation
         End Site
         {
          OFFSET 0.000000 -17.728500 0.000000
         }
        }
       }
      }
     }
     JOINT LeftCollar
     {
      OFFSET 2.921100 9.558500 0.000000
      CHANNELS 3 Yrotation Xrotation Zrotation
      JOINT LeftShoulder
      {
       OFFSET 13.519700 0.000000 0.000000
       CHANNELS 3 Yrotation Xrotation Zrotation
       JOINT LeftElbow
       {
        OFFSET 0.000000 -29.696600 0.000000
        CHANNELS 3 Yrotation Xrotation Zrotation
        JOINT LeftWrist
        {
         OFFSET 0.000000 -24.004700 0.000000
         CHANNELS 3 Yrotation Xrotation Zrotation
         End Site
         {
          OFFSET 0.000000 -17.728500 0.000000
         }
        }
       }
      }
     }
    }
   }
  }
 }
 JOINT RightHip
 {
  OFFSET -7.771700 -0.012900 -0.001300
  CHANNELS 3 Yrotation Xrotation Zrotation
  JOINT RightKnee
  {
   OFFSET 0.000000 -40.869800 0.001200
   CHANNELS 3 Yrotation Xrotation Zrotation
   JOINT RightAnkle
   {
    OFFSET 0.000000 -39.717900 0.002100
    CHANNELS 3 Yrotation Xrotation Zrotation
    JOINT RightToe
    {
     OFFSET 0.000000 -4.965400 11.033500
     CHANNELS 3 Yrotation Xrotation Zrotation
     End Site
     {
      OFFSET 0.000000 -1.423100 5.872300
     }
    }
   }
  }
 }
 JOINT LeftHip
 {
  OFFSET 7.771700 -0.012900 -0.001300
  CHANNELS 3 Yrotation Xrotation Zrotation
  JOINT LeftKnee
  {
   OFFSET 0.000000 -40.869800 0.001200
   CHANNELS 3 Yrotation Xrotation Zrotation
   JOINT LeftAnkle
   {
    OFFSET 0.000000 -39.717900 0.002100
    CHANNELS 3 Yrotation Xrotation Zrotation
    JOINT LeftToe
    {
     OFFSET 0.000000 -4.965400 11.033500
     CHANNELS 3 Yrotation Xrotation Zrotation
     End Site
     {
      OFFSET 0.000000 -1.423100 5.872300
     }
    }
   }
  }
 }
}
MOTION
Frames: 9
Frame Time: 0.008333
0.000000 85.388000 0.000000 0.000000 -5.767877 0.000000 0.000000 11.653817 0.000000 0.000000 -5.885947 0.000000 0.000000 -0.000000 0.000000 0.000000 -0.000000 0.000000 0.000000 12.528835 0.000000 0.000000 0.711642 0.000000 0.000000 -0.000000 0.000000 0.000000 0.000000 -90.000000 0.000000 -2.309062 0.000000 0.000000 2.309062 0.000000 0.000000 -0.000000 0.000000 0.000000 -0.000000 90.000000 0.000000 -2.309062 0.000000 0.000000 2.309062 0.000000 0.000000 8.520406 0.000000 0.000000 1.905762 0.000000 -0.000000 -4.658285 0.000000 0.000000 -0.000000 0.000000 0.000000 8.520406 0.000000 0.000000 1.905762 0.000000 -0.000000 -4.658285 0.000000 0.000000 -0.000000 0.000000
-68.599085 53.131719 -24.582500 179.302639 -16.445057 -2.595470 -0.276384 15.753043 0.433247 -0.027024 1.518599 0.046386 -0.056298 2.536195 0.077385 -0.240546 14.003420 0.408158 -0.538198 17.689964 1.081571 -0.777878 -7.111796 1.238293 -0.137485 -1.714155 2.051400 1.775845 -6.898968 -5.179311 -61.869463 -82.569008 93.561239 -4.561234 -31.608740 -18.132725 -6.666180 -2.704845 1.365399 0.334983 -8.408983 11.422119 58.336051 -63.953803 -104.396516 1.840334 -20.194759 14.142632 -1.266775 -61.552409 14.721482 173.233097 87.812212 173.385764 -12.422839 -22.521696 12.590422 -0.004525 0.001488 0.027161 3.480974 -60.426763 -1.152795 122.522403 77.557019 121.570197 -5.213548 -20.741039 -1.945909 -0.001676 0.017762 -0.005239
-68.600006 53.130854 -24.579909 179.308269 -16.436775 -2.599319 -0.275509 15.751181 0.436976 -0.031311 1.513919 0.046679 -0.051769 2.540305 0.077878 -0.239435 14.004797 0.413379 -0.467375 17.689927 1.046121 -0.728721 -7.117274 1.205976 -0.144592 -1.718447 2.057695 1.778256 -6.908656 -5.194905 -62.458120 -82.622512 94.116713 -4.633080 -31.544359 -18.109740 -6.670955 -2.711080 1.360852 0.340390 -8.438593 11.416594 58.291358 -63.945770 -104.353803 1.843288 -20.204868 14.129510 -1.275859 -61.561819 14.725053 173.176302 87.812464 173.320711 -12.494918 -22.514961 12.613119 -0.004051 0.005159 0.027544 3.464118 -60.435684 -1.145749 122.498759 77.561982 121.546402 -5.209862 -20.736043 -1.949464 -0.002032 0.019881 -0.004398
-68.601690 53.129853 -24.576269 179.310929 -16.424517 -2.601211 -0.272157 15.751042 0.444551 -0.034192 1.510916 0.043884 -0.046847 2.544977 0.083046 -0.245481 13.994859 0.409772 -0.439294 17.687789 1.030845 -0.628863 -7.124047 1.136060 -0.145518 -1.716696 2.064784 1.777343 -6.915511 -5.207509 -62.753315 -82.650403 94.391839 -4.639823 -31.553145 -18.103483 -6.675249 -2.706687 1.351377 0.349023 -8.472089 11.416551 58.306034 -63.940564 -104.366909 1.852398 -20.193814 14.117270 -1.286463 -61.576010 14.705024 172.532892 87.804619 172.642428 -12.345138 -22.514190 12.603118 0.005909 -0.006913 0.018164 3.452645 -60.449116 -1.142860 122.483623 77.565744 121.521417 -5.203079 -20.730834 -1.942471 -0.007838 0.021407 -0.006006
-68.604550 53.129487 -24.574113 179.313896 -16.423646 -2.599468 -0.274679 15.751155 0.443193 -0.027828 1.516927 0.051207 -0.051484 2.541123 0.079765 -0.245985 13.995361 0.408384 -0.365265 17.682272 0.995334 -0.578973 -7.132405 1.098805 -0.147509 -1.714545 2.067844 1.766240 -6.923075 -5.209299 -62.925323 -82.674797 94.559446 -4.589829 -31.593114 -18.124901 -6.678574 -2.708984 1.347354 0.365365 -8.507255 11.397931 58.353731 -63.916984 -104.412569 1.835884 -20.167024 14.109542 -1.287313 -61.578413 14.711716 172.865779 87.809101 172.981978 -12.504905 -22.504924 12.632352 0.001069 0.004681 0.026076 3.462762 -60.451584 -1.157201 122.483152 77.564542 121.524006 -5.206098 -20.730843 -1.941579 -0.006138 0.021320 -0.004307
-68.611316 53.129172 -24.571744 179.317249 -16.422586 -2.577436 -0.280171 15.753884 0.423538 -0.031390 1.513257 0.052651 -0.052073 2.540973 0.080747 -0.244227 14.000831 0.411066 -0.296516 17.670783 0.956016 -0.527740 -7.138432 1.058872 -0.150282 -1.717819 2.061797 1.757479 -6.926714 -5.212916 -62.983609 -82.679321 94.621984 -4.564910 -31.608723 -18.139392 -6.680940 -2.708470 1.336080 0.367182 -8.518122 11.398730 58.394527 -63.900963 -104.448085 1.830709 -20.173223 14.093431 -1.250403 -61.582813 14.714233 174.142591 87.826309 174.306186 -12.939040 -22.484063 12.691213 -0.017173 0.032453 0.044234 3.511458 -60.451783 -1.215204 122.453893 77.564468 121.498287 -5.210084 -20.740676 -1.942392 -0.004613 0.035374 -0.001009
-68.614873 53.129291 -24.569369 179.321401 -16.422912 -2.576822 -0.286659 15.752162 0.430094 -0.031922 1.514122 0.048879 -0.050905 2.541570 0.078326 -0.247917 13.997829 0.425675 -0.270265 17.671248 0.924296 -0.430308 -7.145336 0.984823 -0.152097 -1.704527 2.045732 1.752044 -6.935639 -5.215685 -63.192308 -82.701623 94.834121 -4.564901 -31.607396 -18.151495 -6.679382 -2.685992 1.307370 0.378981 -8.547861 11.394641 58.392704 -63.892337 -104.448742 1.841881 -20.203332 14.098427 -1.255055 -61.583028 14.716707 174.376101 87.833084 174.545021 -12.992357 -22.476582 12.694456 -0.018959 0.027656 0.040152 3.521172 -60.450597 -1.229607 122.420148 77.563835 121.466321 -5.213417 -20.737618 -1.939420 -0.003976 0.036346 -0.000881
-68.614353 53.129889 -24.567068 179.323244 -16.424503 -2.600664 -0.283299 15.753249 0.456539 -0.033098 1.513572 0.050967 -0.050379 2.542211 0.076089 -0.250290 13.997465 0.428201 -0.201159 17.666268 0.886396 -0.375799 -7.145636 0.941930 -0.152426 -1.690340 2.044650 1.752847 -6.947894 -5.222251 -63.500608 -82.727044 95.107381 -4.599550 -31.587363 -18.123480 -6.679153 -2.677140 1.298699 0.399342 -8.564352 11.382425 58.364846 -63.894241 -104.434514 1.847086 -20.205169 14.096768 -1.298546 -61.578318 14.719906 173.345898 87.823528 173.470483 -12.649197 -22.480876 12.646171 -0.002853 -0.005818 0.019364 3.490221 -60.449364 -1.195245 122.404977 77.566457 121.456640 -5.209455 -20.722668 -1.941839 -0.004055 0.023482 0.001269
-68.618573 53.130483 -24.565227 179.323177 -16.427484 -2.594857 -0.286512 15.755202 0.453587 -0.032404 1.514077 0.049259 -0.058347 2.534323 0.086883 -0.262970 13.994674 0.435130 -0.127585 17.673400 0.828532 -0.321977 -7.140744 0.899552 -0.138358 -1.668055 2.023976 1.753779 -6.959810 -5.229053 -63.544118 -82.728489 95.145667 -4.605006 -31.587728 -18.116991 -6.662080 -2.666090 1.271747 0.422084 -8.571576 11.362966 58.351100 -63.876576 -104.416661 1.838881 -20.190984 14.073443 -1.290570 -61.574972 14.663397 172.106747 87.812884 172.187489 -12.289199 -22.480536 12.589737 0.013724 -0.035057 0.002436 3.510667 -60.446907 -1.217830 122.399305 77.568917 121.455618 -5.200900 -20.733945 -1.944951 -0.005835 0.037081 0.001877
